<mxfile host="65bd71144e" pages="2">
    <diagram id="cjkZ95FhPrlqAuIhluLR" name="Page-1">
        <mxGraphModel dx="877" dy="502" grid="1" gridSize="10" guides="1" tooltips="1" connect="1" arrows="1" fold="1" page="1" pageScale="1" pageWidth="827" pageHeight="1169" math="1" shadow="0">
            <root>
                <mxCell id="0"/>
                <mxCell id="1" parent="0"/>
                <mxCell id="If4JKEQ7dcDgpm8DD_II-58" value="" style="rounded=0;whiteSpace=wrap;html=1;glass=0;fontFamily=Times New Roman;fontSize=12;" parent="1" vertex="1">
                    <mxGeometry x="100" y="30" width="520" height="440" as="geometry"/>
                </mxCell>
                <mxCell id="If4JKEQ7dcDgpm8DD_II-9" style="edgeStyle=orthogonalEdgeStyle;rounded=0;orthogonalLoop=1;jettySize=auto;html=1;entryX=0;entryY=0.5;entryDx=0;entryDy=0;fontFamily=Times New Roman;fontSize=14;" parent="1" source="If4JKEQ7dcDgpm8DD_II-4" edge="1">
                    <mxGeometry relative="1" as="geometry">
                        <mxPoint x="310" y="130" as="targetPoint"/>
                    </mxGeometry>
                </mxCell>
                <mxCell id="If4JKEQ7dcDgpm8DD_II-4" value="" style="shape=image;verticalLabelPosition=bottom;labelBackgroundColor=default;verticalAlign=top;aspect=fixed;imageAspect=0;image=data:image/svg+xml,PHN2ZyB4bWxucz0iaHR0cDovL3d3dy53My5vcmcvMjAwMC9zdmciIHdpZHRoPSI0OCIgaGVpZ2h0PSI0OCIgdmlld0JveD0iMCAwIDQ4IDQ4Ij48cGF0aCBkPSJNMTcuMjUgMjkuMTVIMzYuOGwtNi4zNS04LjU1LTUuMTUgNi43NUwyMS45IDIzWk0xMCAzOFY0aDM0djM0Wm0zLTNoMjhWN0gxM1ptLTkgOVYxMGgzdjMxaDMxdjNabTktOVY3djI4WiIvPjwvc3ZnPg==;fontFamily=Times New Roman;fontSize=14;" parent="1" vertex="1">
                    <mxGeometry x="240" y="115" width="30" height="30" as="geometry"/>
                </mxCell>
                <mxCell id="If4JKEQ7dcDgpm8DD_II-10" value="" style="rounded=0;whiteSpace=wrap;html=1;fontFamily=Times New Roman;fontSize=14;gradientColor=default;fillColor=none;glass=0;" parent="1" vertex="1">
                    <mxGeometry x="310" y="350" width="40" height="40" as="geometry"/>
                </mxCell>
                <mxCell id="If4JKEQ7dcDgpm8DD_II-12" style="edgeStyle=orthogonalEdgeStyle;rounded=0;orthogonalLoop=1;jettySize=auto;html=1;entryX=0;entryY=0.5;entryDx=0;entryDy=0;fontFamily=Times New Roman;fontSize=14;" parent="1" source="If4JKEQ7dcDgpm8DD_II-11" target="If4JKEQ7dcDgpm8DD_II-10" edge="1">
                    <mxGeometry relative="1" as="geometry"/>
                </mxCell>
                <mxCell id="If4JKEQ7dcDgpm8DD_II-11" value="" style="shape=image;verticalLabelPosition=bottom;labelBackgroundColor=default;verticalAlign=top;aspect=fixed;imageAspect=0;image=data:image/svg+xml,PHN2ZyB4bWxucz0iaHR0cDovL3d3dy53My5vcmcvMjAwMC9zdmciIHdpZHRoPSI0OCIgaGVpZ2h0PSI0OCIgdmlld0JveD0iMCAwIDQ4IDQ4Ij48cGF0aCBkPSJNMjAuMzUgMzEuNzVxMS4xNSAxLjE1IDMuMzI1IDEuMDc1IDIuMTc1LS4wNzUgMy4xNzUtMS42MjVsMTAuOC0xNi45NUwyMC45IDI1LjJxLTEuNSAxLTEuNiAzLjItLjEgMi4yIDEuMDUgMy4zNVptMy41NS0yMy43cTIuODUgMCA1Ljk1LjkyNXQ1Ljk1IDMuMTc1TDMzLjIgMTRxLTIuMjUtMS41LTQuODI1LTIuMjI1LTIuNTc1LS43MjUtNC40NzUtLjcyNS03IDAtMTEuOTUgNVE3IDIxLjA1IDcgMjguMnEwIDIuMjUuNjI1IDQuNTVUOS40IDM3aDI4Ljk1cTEuMS0xLjggMS43NS00LjIuNjUtMi40LjY1LTQuNyAwLTIuMS0uNjI1LTQuNTI1UTM5LjUgMjEuMTUgMzcuOSAxOS4xbDEuOTUtMi42cTEuOSAyLjggMi44NSA1LjYyNS45NSAyLjgyNSAxLjA1IDUuNjc1LjEgMy0uNiA1LjY1LS43IDIuNjUtMi4wNSA0LjktLjYgMS4xNS0xLjI3NSAxLjQtLjY3NS4yNS0xLjY3NS4yNUg5LjZxLS44NSAwLTEuNjc1LS40MjVRNy4xIDM5LjE1IDYuNyAzOC4zNXEtMS4zLTIuNC0yLTQuODc1VDQgMjguMnEwLTQuMTUgMS41NzUtNy44MjV0NC4yNzUtNi40cTIuNy0yLjcyNSA2LjMyNS00LjMyNXQ3LjcyNS0xLjZabS0uNDUgMTYuNTVaIi8+PC9zdmc+;fontFamily=Times New Roman;fontSize=14;" parent="1" vertex="1">
                    <mxGeometry x="240" y="355" width="30" height="30" as="geometry"/>
                </mxCell>
                <mxCell id="If4JKEQ7dcDgpm8DD_II-47" style="edgeStyle=orthogonalEdgeStyle;rounded=0;orthogonalLoop=1;jettySize=auto;html=1;entryX=0.5;entryY=1;entryDx=0;entryDy=0;fontFamily=Times New Roman;fontSize=12;" parent="1" source="If4JKEQ7dcDgpm8DD_II-16" target="If4JKEQ7dcDgpm8DD_II-46" edge="1">
                    <mxGeometry relative="1" as="geometry"/>
                </mxCell>
                <mxCell id="If4JKEQ7dcDgpm8DD_II-16" value="&amp;nbsp; &amp;nbsp; &amp;nbsp; &amp;nbsp;Schema" style="rounded=1;whiteSpace=wrap;html=1;fontFamily=Times New Roman;fontSize=14;rotation=90;fillColor=#f9f7ed;strokeColor=#36393d;" parent="1" vertex="1">
                    <mxGeometry x="248" y="212" width="340" height="40" as="geometry"/>
                </mxCell>
                <mxCell id="If4JKEQ7dcDgpm8DD_II-19" style="edgeStyle=orthogonalEdgeStyle;rounded=0;orthogonalLoop=1;jettySize=auto;html=1;entryX=0.612;entryY=1.001;entryDx=0;entryDy=0;entryPerimeter=0;fontFamily=Times New Roman;fontSize=14;" parent="1" target="If4JKEQ7dcDgpm8DD_II-16" edge="1">
                    <mxGeometry relative="1" as="geometry">
                        <mxPoint x="350" y="270" as="sourcePoint"/>
                    </mxGeometry>
                </mxCell>
                <mxCell id="If4JKEQ7dcDgpm8DD_II-17" style="edgeStyle=orthogonalEdgeStyle;rounded=0;orthogonalLoop=1;jettySize=auto;html=1;entryX=0.2;entryY=1;entryDx=0;entryDy=0;entryPerimeter=0;fontFamily=Times New Roman;fontSize=14;" parent="1" target="If4JKEQ7dcDgpm8DD_II-16" edge="1">
                    <mxGeometry relative="1" as="geometry">
                        <mxPoint x="350" y="130" as="sourcePoint"/>
                    </mxGeometry>
                </mxCell>
                <mxCell id="If4JKEQ7dcDgpm8DD_II-20" style="edgeStyle=orthogonalEdgeStyle;rounded=0;orthogonalLoop=1;jettySize=auto;html=1;entryX=0.906;entryY=0.996;entryDx=0;entryDy=0;entryPerimeter=0;fontFamily=Times New Roman;fontSize=14;" parent="1" source="If4JKEQ7dcDgpm8DD_II-10" target="If4JKEQ7dcDgpm8DD_II-16" edge="1">
                    <mxGeometry relative="1" as="geometry"/>
                </mxCell>
                <mxCell id="If4JKEQ7dcDgpm8DD_II-21" value="" style="shape=cube;whiteSpace=wrap;html=1;boundedLbl=1;backgroundOutline=1;darkOpacity=0.05;darkOpacity2=0.1;fontFamily=Times New Roman;fontSize=14;fillColor=default;rounded=0;flipH=1;" parent="1" vertex="1">
                    <mxGeometry x="310.5" y="60" width="25" height="140" as="geometry"/>
                </mxCell>
                <mxCell id="If4JKEQ7dcDgpm8DD_II-22" value="" style="shape=cube;whiteSpace=wrap;html=1;boundedLbl=1;backgroundOutline=1;darkOpacity=0.05;darkOpacity2=0.1;fontFamily=Times New Roman;fontSize=14;fillColor=default;rounded=0;flipH=1;" parent="1" vertex="1">
                    <mxGeometry x="317.5" y="60" width="25" height="140" as="geometry"/>
                </mxCell>
                <mxCell id="If4JKEQ7dcDgpm8DD_II-23" value="" style="shape=cube;whiteSpace=wrap;html=1;boundedLbl=1;backgroundOutline=1;darkOpacity=0.05;darkOpacity2=0.1;fontFamily=Times New Roman;fontSize=14;fillColor=default;rounded=0;flipH=1;" parent="1" vertex="1">
                    <mxGeometry x="324.5" y="60" width="25" height="140" as="geometry"/>
                </mxCell>
                <mxCell id="If4JKEQ7dcDgpm8DD_II-24" value="" style="rounded=0;whiteSpace=wrap;html=1;fontFamily=Times New Roman;fontSize=14;rotation=90;" parent="1" vertex="1">
                    <mxGeometry x="300" y="250" width="60" height="40" as="geometry"/>
                </mxCell>
                <mxCell id="If4JKEQ7dcDgpm8DD_II-8" style="edgeStyle=orthogonalEdgeStyle;rounded=0;orthogonalLoop=1;jettySize=auto;html=1;entryX=0;entryY=0.5;entryDx=0;entryDy=0;fontFamily=Times New Roman;fontSize=14;" parent="1" edge="1">
                    <mxGeometry relative="1" as="geometry">
                        <mxPoint x="270" y="270" as="sourcePoint"/>
                        <mxPoint x="310" y="270" as="targetPoint"/>
                    </mxGeometry>
                </mxCell>
                <mxCell id="If4JKEQ7dcDgpm8DD_II-27" value="" style="sketch=0;outlineConnect=0;dashed=0;verticalLabelPosition=bottom;verticalAlign=top;align=center;html=1;fontSize=12;fontStyle=0;aspect=fixed;pointerEvents=1;shape=mxgraph.aws4.sagemaker_model;fontFamily=Times New Roman;fillColor=#000000;" parent="1" vertex="1">
                    <mxGeometry x="550" y="212" width="40" height="40" as="geometry"/>
                </mxCell>
                <mxCell id="If4JKEQ7dcDgpm8DD_II-30" value="" style="shape=image;verticalLabelPosition=bottom;labelBackgroundColor=default;verticalAlign=top;aspect=fixed;imageAspect=0;image=data:image/svg+xml,PHN2ZyB4bWxucz0iaHR0cDovL3d3dy53My5vcmcvMjAwMC9zdmciIHdpZHRoPSI0OCIgaGVpZ2h0PSI0OCIgdmlld0JveD0iMCAwIDQ4IDQ4Ij48cGF0aCBkPSJNMzQuNCA0My45NXEtMi44NSAwLTQuOTUtMS41NXQtMy4xLTQuMXEtMS0yLjU1LTEuOTc1LTMuOTc1UTIzLjQgMzIuOSAyMC43IDMwLjc1cS0zLjMtMi42NS00Ljc1LTUuNjUtMS40NS0zLTEuNDUtNy4zIDAtNiAzLjgtOS44MjUgMy44LTMuODI1IDkuOC0zLjgyNSA1LjkgMCA5Ljc3NSAzLjY3NVQ0MiAxNy4yaC0zcS0uMjUtNC40LTMuMjc1LTcuMjI1UTMyLjcgNy4xNSAyOC4xIDcuMTVxLTQuNSAwLTcuNTUgMy4wNzVUMTcuNSAxNy44cTAgMy42IDEuNCA2LjIyNSAxLjQgMi42MjUgNC42NSA1LjA3NSAxLjk1IDEuNDUgMy4xMjUgMy4xNXQyLjIyNSA0LjJxLjg1IDIuMSAyLjIyNSAzLjMgMS4zNzUgMS4yIDMuMjc1IDEuMiAxLjc1IDAgMy4wMjUtMS4ydDEuNTI1LTIuOTVoM3EtLjI1IDMtMi40IDUuMDc1VDM0LjQgNDMuOTVaTTExLjk1IDMyLjlxLTIuODUtMy4xNS00LjQtNy4wNzVRNiAyMS45IDYgMTcuNnEwLTQuMjUgMS40NzUtOC4yMjVROC45NSA1LjQgMTEuOTUgMi4zNWwyLjI1IDJRMTEuNiA3IDEwLjMgMTAuNDI1IDkgMTMuODUgOSAxNy42cTAgMy43IDEuMzI1IDcuMTI1VDE0LjIgMzAuODVaTTI4LjEgMjIuNDVxLTEuOTUgMC0zLjMtMS4zNS0xLjM1LTEuMzUtMS4zNS0zLjMgMC0xLjk1IDEuMzUtMy4zNSAxLjM1LTEuNCAzLjMtMS40IDEuOTUgMCAzLjM1IDEuNCAxLjQgMS40IDEuNCAzLjM1IDAgMS45NS0xLjQgMy4zLTEuNCAxLjM1LTMuMzUgMS4zNVoiLz48L3N2Zz4=;" parent="1" vertex="1">
                    <mxGeometry x="240" y="255" width="30" height="30" as="geometry"/>
                </mxCell>
                <mxCell id="If4JKEQ7dcDgpm8DD_II-31" value="" style="shape=image;verticalLabelPosition=bottom;labelBackgroundColor=default;verticalAlign=top;aspect=fixed;imageAspect=0;image=data:image/svg+xml,PHN2ZyB4bWxucz0iaHR0cDovL3d3dy53My5vcmcvMjAwMC9zdmciIHdpZHRoPSI0OCIgaGVpZ2h0PSI0OCIgdmlld0JveD0iMCAwIDQ4IDQ4Ij48cGF0aCBkPSJNMi40IDI1LjV2LTNoMTAuNjVsNS4xIDEyLjA1TDI5Ljc1IDUuNmw3LjMgMTYuOWg4LjU1djNIMzQuOTVsLTUuMS0xMS45NUwxOC4yIDQyLjVsLTcuMjUtMTdaIi8+PC9zdmc+;" parent="1" vertex="1">
                    <mxGeometry x="321" y="252" width="18" height="18" as="geometry"/>
                </mxCell>
                <mxCell id="If4JKEQ7dcDgpm8DD_II-32" value="" style="shape=image;verticalLabelPosition=bottom;labelBackgroundColor=default;verticalAlign=top;aspect=fixed;imageAspect=0;image=data:image/svg+xml,PHN2ZyB4bWxucz0iaHR0cDovL3d3dy53My5vcmcvMjAwMC9zdmciIHdpZHRoPSI0OCIgaGVpZ2h0PSI0OCIgdmlld0JveD0iMCAwIDQ4IDQ4Ij48cGF0aCBkPSJNMi40IDI1LjV2LTNoMTAuNjVsNS4xIDEyLjA1TDI5Ljc1IDUuNmw3LjMgMTYuOWg4LjU1djNIMzQuOTVsLTUuMS0xMS45NUwxOC4yIDQyLjVsLTcuMjUtMTdaIi8+PC9zdmc+;" parent="1" vertex="1">
                    <mxGeometry x="321" y="270" width="18" height="18" as="geometry"/>
                </mxCell>
                <mxCell id="If4JKEQ7dcDgpm8DD_II-34" value="" style="shape=image;verticalLabelPosition=bottom;labelBackgroundColor=default;verticalAlign=top;aspect=fixed;imageAspect=0;image=data:image/svg+xml,PHN2ZyB4bWxucz0iaHR0cDovL3d3dy53My5vcmcvMjAwMC9zdmciIHdpZHRoPSI0OCIgaGVpZ2h0PSI0OCIgdmlld0JveD0iMCAwIDQ4IDQ4Ij48cGF0aCBkPSJNNi4zIDM3IDQgMzQuN2wxNS0xNSA4IDguMDVMNDEuOSAxMWwyLjEgMi4wNS0xNyAxOS4yLTgtNy45NVoiLz48L3N2Zz4=;" parent="1" vertex="1">
                    <mxGeometry x="320" y="360" width="20" height="20" as="geometry"/>
                </mxCell>
                <mxCell id="If4JKEQ7dcDgpm8DD_II-48" style="edgeStyle=orthogonalEdgeStyle;rounded=0;orthogonalLoop=1;jettySize=auto;html=1;fontFamily=Times New Roman;fontSize=12;" parent="1" source="If4JKEQ7dcDgpm8DD_II-46" target="If4JKEQ7dcDgpm8DD_II-27" edge="1">
                    <mxGeometry relative="1" as="geometry"/>
                </mxCell>
                <mxCell id="If4JKEQ7dcDgpm8DD_II-46" value="Encoder" style="shape=trapezoid;perimeter=trapezoidPerimeter;whiteSpace=wrap;html=1;fixedSize=1;rounded=0;glass=0;fontFamily=Times New Roman;fontSize=12;rotation=90;fillColor=#f9f7ed;strokeColor=#36393d;" parent="1" vertex="1">
                    <mxGeometry x="450" y="208.5" width="91" height="47" as="geometry"/>
                </mxCell>
                <mxCell id="If4JKEQ7dcDgpm8DD_II-49" value="" style="shape=image;verticalLabelPosition=bottom;labelBackgroundColor=default;verticalAlign=top;aspect=fixed;imageAspect=0;image=data:image/svg+xml,PHN2ZyB4bWxucz0iaHR0cDovL3d3dy53My5vcmcvMjAwMC9zdmciIHdpZHRoPSI0OCIgaGVpZ2h0PSI0OCIgdmlld0JveD0iMCAwIDQ4IDQ4Ij48cGF0aCBkPSJNOCA0NlYzNWg1di01LjVIOHYtMTFoNVYxM0g4VjJoMTN2MTFoLTV2NS41aDV2NGg4di00aDEzdjExSDI5di00aC04djRoLTVWMzVoNXYxMVptMy0zaDd2LTVoLTdabTAtMTYuNWg3di01aC03Wm0yMSAwaDd2LTVoLTdaTTExIDEwaDdWNWgtN1ptMy41LTIuNVptMCAxNi41Wm0yMSAwWm0tMjEgMTYuNVoiLz48L3N2Zz4=;" parent="1" vertex="1">
                    <mxGeometry x="408" y="198" width="20" height="20" as="geometry"/>
                </mxCell>
                <mxCell id="If4JKEQ7dcDgpm8DD_II-52" style="edgeStyle=orthogonalEdgeStyle;rounded=0;orthogonalLoop=1;jettySize=auto;html=1;fontFamily=Times New Roman;fontSize=12;" parent="1" source="If4JKEQ7dcDgpm8DD_II-50" target="If4JKEQ7dcDgpm8DD_II-27" edge="1">
                    <mxGeometry relative="1" as="geometry">
                        <mxPoint x="350" y="435" as="targetPoint"/>
                    </mxGeometry>
                </mxCell>
                <mxCell id="If4JKEQ7dcDgpm8DD_II-50" value="" style="shape=image;verticalLabelPosition=bottom;labelBackgroundColor=default;verticalAlign=top;aspect=fixed;imageAspect=0;image=data:image/svg+xml,PHN2ZyB4bWxucz0iaHR0cDovL3d3dy53My5vcmcvMjAwMC9zdmciIHdpZHRoPSI0OCIgaGVpZ2h0PSI0OCIgdmlld0JveD0iMCAwIDQ4IDQ4Ij48cGF0aCBkPSJNMjQgNDYgOCAzNFY0aDMydjMwWm0wLTMuNzUgMTMtMTBWN0gxMXYyNS4yNVpNMjEuOSAzMGwxMS4zLTExLjMtMi4xNS0yLjEtOS4yIDkuMi00Ljk1LTQuOTUtMi4xIDIuMVpNMjQgN0gxMWgyNloiLz48L3N2Zz4=;" parent="1" vertex="1">
                    <mxGeometry x="240" y="420" width="30" height="30" as="geometry"/>
                </mxCell>
                <mxCell id="If4JKEQ7dcDgpm8DD_II-54" style="rounded=0;orthogonalLoop=1;jettySize=auto;html=1;entryX=0;entryY=0.5;entryDx=0;entryDy=0;fontFamily=Times New Roman;fontSize=12;edgeStyle=orthogonalEdgeStyle;" parent="1" source="If4JKEQ7dcDgpm8DD_II-53" target="If4JKEQ7dcDgpm8DD_II-4" edge="1">
                    <mxGeometry relative="1" as="geometry"/>
                </mxCell>
                <mxCell id="If4JKEQ7dcDgpm8DD_II-55" style="rounded=0;orthogonalLoop=1;jettySize=auto;html=1;entryX=0;entryY=0.5;entryDx=0;entryDy=0;fontFamily=Times New Roman;fontSize=12;edgeStyle=orthogonalEdgeStyle;" parent="1" source="If4JKEQ7dcDgpm8DD_II-53" target="If4JKEQ7dcDgpm8DD_II-30" edge="1">
                    <mxGeometry relative="1" as="geometry"/>
                </mxCell>
                <mxCell id="If4JKEQ7dcDgpm8DD_II-56" style="rounded=0;orthogonalLoop=1;jettySize=auto;html=1;entryX=0;entryY=0.5;entryDx=0;entryDy=0;fontFamily=Times New Roman;fontSize=12;edgeStyle=orthogonalEdgeStyle;" parent="1" source="If4JKEQ7dcDgpm8DD_II-53" target="If4JKEQ7dcDgpm8DD_II-11" edge="1">
                    <mxGeometry relative="1" as="geometry"/>
                </mxCell>
                <mxCell id="If4JKEQ7dcDgpm8DD_II-57" style="rounded=0;orthogonalLoop=1;jettySize=auto;html=1;entryX=0;entryY=0.5;entryDx=0;entryDy=0;fontFamily=Times New Roman;fontSize=12;edgeStyle=orthogonalEdgeStyle;" parent="1" source="If4JKEQ7dcDgpm8DD_II-53" target="If4JKEQ7dcDgpm8DD_II-50" edge="1">
                    <mxGeometry relative="1" as="geometry"/>
                </mxCell>
                <mxCell id="If4JKEQ7dcDgpm8DD_II-53" value="Database" style="shape=cylinder3;whiteSpace=wrap;html=1;boundedLbl=1;backgroundOutline=1;size=15;rounded=0;glass=0;fontFamily=Times New Roman;fontSize=12;" parent="1" vertex="1">
                    <mxGeometry x="130" y="240" width="60" height="80" as="geometry"/>
                </mxCell>
            </root>
        </mxGraphModel>
    </diagram>
    <diagram id="9Bftv45eBPHf-KUiMhFO" name="Page-2">
        <mxGraphModel dx="877" dy="502" grid="1" gridSize="10" guides="1" tooltips="1" connect="1" arrows="1" fold="1" page="1" pageScale="1" pageWidth="827" pageHeight="1169" math="1" shadow="0">
            <root>
                <mxCell id="0"/>
                <mxCell id="1" parent="0"/>
            </root>
        </mxGraphModel>
    </diagram>
</mxfile>